<svg width="150" height="167" viewBox="0 0 150 167" fill="none" xmlns="http://www.w3.org/2000/svg">
<mask id="path-1-inside-1_713_222" fill="white">
<path d="M3.94751 117H150V117C150 144.614 127.614 167 100 167H53.9475C26.3332 167 3.94751 144.614 3.94751 117V117Z"/>
</mask>
<path d="M3.94751 117H150V117C150 144.614 127.614 167 100 167H53.9475C26.3332 167 3.94751 144.614 3.94751 117V117Z" fill="#4DDFBB"/>
<path d="M3.94751 113H150V117C150 118.335 149.947 119.669 149.84 121L53.9475 121H4.10518L4.10775 121C4.00097 119.669 3.94751 118.335 3.94751 117L3.94751 113ZM150 167H3.94751H150ZM3.94751 167V117V167ZM150 117V167V117Z" fill="white" mask="url(#path-1-inside-1_713_222)"/>
<path d="M10.0741 70L58.3478 101.162V101.162C52.784 110.013 41.1539 112.591 32.3711 106.921L15.9026 96.2903C7.11987 90.6208 4.51035 78.8502 10.0741 70V70Z" fill="#FF9800"/>
<rect x="74.0133" y="84" width="29.6053" height="23" fill="#FA8282"/>
<ellipse cx="42.9276" cy="49" rx="15.2961" ry="13" fill="#59D8B9"/>
<path d="M67.3593 15.8593L110.262 34.6644L77.3466 62.1335L67.3593 15.8593Z" fill="#FF9800"/>
<path d="M116.996 84.1877L121.495 56.5857L142.956 74.6677L116.996 84.1877Z" fill="#93BDED"/>
</svg>
